<?xml version="1.0" encoding="utf-8"?>
<!-- Generator: Adobe Illustrator 16.0.0, SVG Export Plug-In . SVG Version: 6.00 Build 0)  -->
<!DOCTYPE svg PUBLIC "-//W3C//DTD SVG 1.1//EN" "http://www.w3.org/Graphics/SVG/1.1/DTD/svg11.dtd">
<svg version="1.1" id="Layer_1" xmlns="http://www.w3.org/2000/svg" xmlns:xlink="http://www.w3.org/1999/xlink" x="0px" y="0px"
	 width="486px" height="132px" viewBox="0 0 486 132" enable-background="new 0 0 486 132" xml:space="preserve">
<path fill="#FFFFFF" d="M224.071,89.811c4.469-6.059,7.054-13.515,7.054-21.459c0-19.667-14.899-35.858-36.257-35.858
	c-21.355,0-36.458,16.39-36.458,36.06c0,19.669,14.904,35.855,36.261,35.855c8.14,0,15.295-2.48,21.159-6.548l6.092,5.435h18.101
	L224.071,89.811z M214.734,81.664h-17.527l9.582,8.146c-3.276,2.087-7.35,3.372-11.919,3.372c-13.807,0-23.642-11.221-23.642-24.831
	c0-13.607,9.633-24.633,23.445-24.633c13.807,0,23.637,11.225,23.637,24.835C218.308,73.423,217.118,77.99,214.734,81.664z"/>
<path fill="#FFFFFF" d="M428.987,61.098L418.666,50.77h-6.814V36.367h-12.013v52.35c0,11.523,6.256,15.4,15.102,15.4
	c4.461,0,7.836-0.998,10.822-2.688v-9.829c-2.383,1.189-4.765,1.785-7.453,1.785c-4.075,0-6.458-1.886-6.458-6.56V61.098H428.987
	L428.987,61.098z"/>
<g>
	<path fill="#FFFFFF" d="M289.084,102.979h-12.189v-8.344h-0.214c-1.142,2.601-3.119,4.895-5.935,6.881
		c-2.816,1.986-6.148,2.98-9.998,2.98c-3.351,0-6.22-0.596-8.608-1.788c-2.388-1.192-4.349-2.764-5.88-4.714
		c-1.533-1.951-2.657-4.189-3.368-6.719c-0.713-2.527-1.07-5.129-1.07-7.803v-32.51h12.831v28.825c0,1.517,0.107,3.108,0.321,4.769
		c0.215,1.662,0.678,3.162,1.391,4.498c0.712,1.337,1.692,2.438,2.94,3.304c1.246,0.868,2.904,1.302,4.973,1.302
		c1.994,0,3.759-0.415,5.293-1.247c1.531-0.829,2.78-1.896,3.742-3.196c0.962-1.301,1.691-2.8,2.192-4.498
		c0.497-1.696,0.747-3.414,0.747-5.147V50.963h12.832V102.979z"/>
	<path fill="#FFFFFF" d="M333.138,96.368h-0.321c-1.284,2.313-3.351,4.21-6.202,5.69c-2.853,1.479-6.094,2.221-9.73,2.221
		c-2.068,0-4.224-0.27-6.469-0.813c-2.245-0.542-4.314-1.443-6.201-2.709c-1.891-1.264-3.459-2.926-4.705-4.985
		c-1.249-2.06-1.871-4.605-1.871-7.64c0-3.901,1.085-7.006,3.261-9.319c2.173-2.311,4.973-4.081,8.394-5.311
		c3.422-1.229,7.218-2.04,11.388-2.438c4.17-0.396,8.25-0.595,12.244-0.595v-1.302c0-3.25-1.16-5.652-3.476-7.206
		c-2.317-1.553-5.079-2.33-8.287-2.33c-2.71,0-5.312,0.58-7.806,1.734c-2.496,1.157-4.563,2.565-6.201,4.227l-6.63-7.911
		c2.922-2.745,6.29-4.804,10.105-6.177c3.812-1.372,7.679-2.059,11.601-2.059c4.561,0,8.323,0.65,11.28,1.951
		c2.959,1.301,5.293,2.999,7.005,5.093c1.711,2.097,2.903,4.443,3.582,7.043c0.677,2.602,1.015,5.202,1.015,7.803v31.643h-11.975
		V96.368z M332.924,79.247h-2.887c-2.069,0-4.242,0.091-6.524,0.271c-2.28,0.182-4.384,0.579-6.309,1.191
		c-1.924,0.615-3.528,1.482-4.812,2.602c-1.283,1.121-1.925,2.655-1.925,4.605c0,1.229,0.268,2.258,0.804,3.089
		c0.532,0.83,1.229,1.5,2.084,2.005c0.855,0.506,1.817,0.867,2.887,1.084c1.07,0.216,2.139,0.324,3.207,0.324
		c4.421,0,7.77-1.191,10.053-3.576c2.28-2.385,3.422-5.634,3.422-9.754V79.247z"/>
	<path fill="#FFFFFF" d="M356.873,50.963h12.298v8.669h0.213c1.426-3.034,3.421-5.49,5.987-7.369
		c2.567-1.878,5.562-2.817,8.982-2.817c0.498,0,1.033,0.019,1.604,0.054c0.57,0.038,1.069,0.127,1.496,0.271v11.92
		c-0.854-0.216-1.587-0.36-2.191-0.433c-0.606-0.071-1.194-0.108-1.765-0.108c-2.924,0-5.276,0.542-7.057,1.625
		c-1.783,1.084-3.174,2.384-4.171,3.901c-0.999,1.518-1.675,3.071-2.031,4.66c-0.357,1.589-0.535,2.855-0.535,3.792v27.851h-12.831
		V50.963z"/>
</g>
<g>
	<path fill="#FFFFFF" d="M438.764,91.492l27.694-30.126h-26.411V50.963h41.701V62.45l-27.8,29.909h29.083v10.62h-44.268V91.492z"/>
</g>
<polygon fill="#FFFFFF" points="125.448,67.384 64.002,5.936 2.554,67.383 64.001,128.832 88.111,104.722 75.33,91.938 
	63.439,103.829 26.432,66.82 63.438,29.813 100.447,66.822 88.556,78.712 101.339,91.493 "/>
</svg>
